<?xml version="1.0"?>
<svg version="1.1" xmlns="http://www.w3.org/2000/svg" xmlns:xlink="http://www.w3.org/1999/xlink" width="640" height="480">
    <desc iVinci="yes" version="4.4" gridStep="20" showGrid="no" snapToGrid="no" codePlatform="0"/>
    <g id="Layer1">
        <g id="Shape1">
            <desc type="0" basicInfo-basicType="0" basicInfo-roundedRectRadius="12" basicInfo-polygonSides="6" basicInfo-starPoints="5" bounding="rect(-197,-226.5,394,453)" text="" font-familyName="Helvetica" font-pixelSize="20" font-bold="0" font-underline="0" font-alignment="1" strokeStyle="0" markerStart="0" markerEnd="0" shadowEnabled="0" shadowOffsetX="0" shadowOffsetY="2" shadowBlur="4" shadowOpacity="160" blurEnabled="0" blurRadius="4" transform="matrix(1,0,0,1,238.5,248.5)" pers-center="0,0" pers-size="0,0" pers-start="0,0" pers-end="0,0" locked="0" mesh="" flag=""/>
            <path id="shapePath1" d="M96.5,150 C96.5,150 105.5,125 105.5,125 C105.5,125 96.5,109 96.5,109 C96.5,109 82.5,125 82.5,125 C82.5,125 66.5,92 66.5,92 C66.5,92 52.5,104 52.5,104 C52.5,104 66.5,132 66.5,132 C66.5,132 41.5,144 41.5,144 C41.5,144 41.5,160 41.5,160 C41.5,160 66.5,150 66.5,150 C66.5,150 52.5,175 52.5,175 C52.5,175 66.5,180 66.5,180 C66.5,180 82.5,160 82.5,160 C82.5,160 155.5,227 155.5,227 C155.5,227 213.5,184 213.5,184 C213.5,184 226.5,305 226.5,305 C226.5,305 169.5,376 169.5,376 C169.5,376 177.5,453 177.5,453 C177.5,453 133.5,462 133.5,462 C133.5,462 143.5,474 143.5,474 C143.5,474 223.5,475 223.5,475 C223.5,475 211.5,391 211.5,391 C211.5,391 266.5,323 266.5,323 C266.5,323 298.5,384 298.5,384 C298.5,384 334.5,450 334.5,450 C334.5,450 393.5,432 393.5,432 C393.5,432 400.5,417 400.5,417 C400.5,417 360.5,426 360.5,426 C360.5,426 337.5,354 337.5,354 C337.5,354 292.5,290 292.5,290 C292.5,290 293.5,180 293.5,180 C293.5,180 397.5,218 397.5,218 C397.5,218 377.5,125 377.5,125 C377.5,125 409.5,144 409.5,144 C409.5,144 418.5,132 418.5,132 C418.5,132 388.5,117 388.5,117 C388.5,117 423.5,120 423.5,120 C423.5,120 435.5,96 435.5,96 C435.5,96 397.5,100 397.5,100 C397.5,100 429.5,77 429.5,77 C429.5,77 409.5,63 409.5,63 C409.5,63 377.5,84 377.5,84 C377.5,84 364.5,51 364.5,51 C364.5,51 328.5,66 328.5,66 C328.5,66 354.5,92 354.5,92 C354.5,92 369.5,187 369.5,187 C369.5,187 285.5,140 285.5,140 C285.5,140 266.5,125 266.5,125 C266.5,125 246.5,129 246.5,129 C246.5,129 250.5,107 250.5,107 C250.5,107 272.5,77 272.5,77 C272.5,77 276.5,44 276.5,44 C276.5,44 246.5,22 246.5,22 C246.5,22 204.5,25 204.5,25 C204.5,25 178.5,57 178.5,57 C178.5,57 188.5,96 188.5,96 C188.5,96 216.5,107 216.5,107 C216.5,107 216.5,128 216.5,128 C216.5,128 194.5,132 194.5,132 C194.5,132 186.5,156 186.5,156 C186.5,156 156.5,191 156.5,191 C156.5,191 96.5,150 96.5,150 Z" style="stroke:#dc76ef;stroke-opacity:1;stroke-width:1;stroke-linejoin:miter;stroke-miterlimit:2;stroke-linecap:round;fill-rule:evenodd;fill:#969696;fill-opacity:0.784314;"/>
        </g>
    </g>
</svg>
